# xmcd CD database file
#
# Track frame offsets:
#	150
#	900
#	1650
#	67858
#
# Disc length: 4440 seconds
#
# Revision: 1
# Processed by: cddbd v1.5.1PL0 Copyright (c) Steve Scherf et al.
# Submitted via: CDex 1.51
#
DISCID=16115604
DTITLE=布施明 - 少年よ
DYEAR=2005
DGENRE=J-POP
TTITLE0=少年よ
TTITLE1=輝
TTITLE2=少年よ(インストゥルメンタル コーラス入り)
TTITLE3=データ
EXTD=YEAR: 2005.03.24
EXTT0=
EXTT1=
EXTT2=
EXTT3=
PLAYORDER=
